<svg xmlns="http://www.w3.org/2000/svg" viewBox="0 0 400 300" width="400" height="300" xmlns:c2pa="http://c2pa.org/manifest"><rect width="400" height="300" fill="#EEF4FA"></rect><line x1="0" y1="24" x2="400" y2="24" stroke="#D6E4F3" stroke-width="1"></line><line x1="0" y1="48" x2="400" y2="48" stroke="#D6E4F3" stroke-width="1"></line><line x1="0" y1="72" x2="400" y2="72" stroke="#D6E4F3" stroke-width="1"></line><line x1="0" y1="96" x2="400" y2="96" stroke="#D6E4F3" stroke-width="1"></line><line x1="0" y1="120" x2="400" y2="120" stroke="#D6E4F3" stroke-width="1"></line><line x1="0" y1="144" x2="400" y2="144" stroke="#D6E4F3" stroke-width="1"></line><line x1="0" y1="168" x2="400" y2="168" stroke="#D6E4F3" stroke-width="1"></line><line x1="0" y1="192" x2="400" y2="192" stroke="#D6E4F3" stroke-width="1"></line><line x1="0" y1="216" x2="400" y2="216" stroke="#D6E4F3" stroke-width="1"></line><line x1="0" y1="240" x2="400" y2="240" stroke="#D6E4F3" stroke-width="1"></line><line x1="0" y1="264" x2="400" y2="264" stroke="#D6E4F3" stroke-width="1"></line><line x1="0" y1="288" x2="400" y2="288" stroke="#D6E4F3" stroke-width="1"></line>
<circle cx="200" cy="150" r="118" fill="none" stroke="#14233F" stroke-width="2.5" stroke-linecap="round" stroke-linejoin="round"></circle><circle cx="200" cy="150" r="96" fill="none" stroke="#2F5C9E" stroke-width="1.5" stroke-linecap="round" stroke-linejoin="round"></circle>
<path d="M150 120c-22 4-30 26-18 40 10 12 34 12 44-2 10-16-6-42-26-38z" fill="none" stroke="#14233F" stroke-width="2.5" stroke-linecap="round" stroke-linejoin="round"></path><circle cx="152" cy="140" r="12" fill="#E0A27C" stroke="#14233F" stroke-width="2"></circle>
<path d="M205 95c-20 2-28 22-18 36 10 13 34 12 42-2 8-16-6-36-24-34z" fill="none" stroke="#14233F" stroke-width="2.5" stroke-linecap="round" stroke-linejoin="round"></path><circle cx="208" cy="113" r="11" fill="#E0A27C" stroke="#14233F" stroke-width="2"></circle>
<rect x="188" y="160" width="86" height="62" rx="12" transform="rotate(-14 231 191)" fill="none" stroke="#14233F" stroke-width="2.5" stroke-linecap="round" stroke-linejoin="round"></rect><rect x="198" y="170" width="66" height="42" rx="8" transform="rotate(-14 231 191)" fill="none" stroke="#E0A27C" stroke-width="2"></rect>
<g fill="#2F5C9E"><circle cx="130" cy="190" r="3"></circle><circle cx="142" cy="200" r="2.5"></circle><circle cx="250" cy="120" r="3"></circle><circle cx="262" cy="132" r="2.5"></circle></g></svg>